<mxfile host="app.diagrams.net" agent="Mozilla/5.0 (Windows NT 10.0; Win64; x64) AppleWebKit/537.36 (KHTML, like Gecko) Chrome/135.0.0.0 Safari/537.36" version="26.2.5">
  <diagram name="PÃ¡gina-1" id="Lrrs5YaSgaaOT07pxVCJ">
    <mxGraphModel dx="1428" dy="823" grid="1" gridSize="10" guides="1" tooltips="1" connect="1" arrows="1" fold="1" page="1" pageScale="1" pageWidth="827" pageHeight="1169" math="0" shadow="0">
      <root>
        <mxCell id="0" />
        <mxCell id="1" parent="0" />
        <mxCell id="SQtIZXjAyS8eLif3JnIM-3" value="" style="rounded=0;whiteSpace=wrap;html=1;fillColor=#60a917;fontColor=#ffffff;strokeColor=#2D7600;" vertex="1" parent="1">
          <mxGeometry x="120" y="10" width="600" height="120" as="geometry" />
        </mxCell>
        <mxCell id="SQtIZXjAyS8eLif3JnIM-4" value="" style="verticalLabelPosition=bottom;shadow=0;dashed=0;align=center;html=1;verticalAlign=top;strokeWidth=1;shape=mxgraph.mockup.graphics.simpleIcon;strokeColor=#999999;" vertex="1" parent="1">
          <mxGeometry x="140" y="30" width="80" height="80" as="geometry" />
        </mxCell>
        <mxCell id="SQtIZXjAyS8eLif3JnIM-5" value="" style="swimlane;shape=mxgraph.bootstrap.anchor;strokeColor=#999999;fillColor=#ffffff;fontColor=#666666;childLayout=stackLayout;horizontal=0;startSize=0;horizontalStack=1;resizeParent=1;resizeParentMax=0;resizeLast=0;collapsible=0;marginBottom=0;whiteSpace=wrap;html=1;" vertex="1" parent="1">
          <mxGeometry x="280" y="60" width="340" height="20" as="geometry" />
        </mxCell>
        <mxCell id="SQtIZXjAyS8eLif3JnIM-6" value="Home" style="text;strokeColor=inherit;align=center;verticalAlign=middle;spacingLeft=10;spacingRight=10;overflow=hidden;points=[[0,0.5],[1,0.5]];portConstraint=eastwest;rotatable=0;whiteSpace=wrap;html=1;fillColor=inherit;fontColor=inherit;fontSize=17;" vertex="1" parent="SQtIZXjAyS8eLif3JnIM-5">
          <mxGeometry width="70" height="20" as="geometry" />
        </mxCell>
        <mxCell id="SQtIZXjAyS8eLif3JnIM-8" value="About Us" style="text;strokeColor=inherit;align=center;verticalAlign=middle;spacingLeft=10;spacingRight=10;overflow=hidden;points=[[0,0.5],[1,0.5]];portConstraint=eastwest;rotatable=0;whiteSpace=wrap;html=1;fillColor=inherit;fontColor=inherit;fontSize=17;" vertex="1" parent="SQtIZXjAyS8eLif3JnIM-5">
          <mxGeometry x="70" width="90" height="20" as="geometry" />
        </mxCell>
        <mxCell id="SQtIZXjAyS8eLif3JnIM-9" value="Trips" style="text;strokeColor=inherit;align=center;verticalAlign=middle;spacingLeft=10;spacingRight=10;overflow=hidden;points=[[0,0.5],[1,0.5]];portConstraint=eastwest;rotatable=0;whiteSpace=wrap;html=1;fillColor=inherit;fontColor=inherit;fontSize=17;" vertex="1" parent="SQtIZXjAyS8eLif3JnIM-5">
          <mxGeometry x="160" width="90" height="20" as="geometry" />
        </mxCell>
        <mxCell id="SQtIZXjAyS8eLif3JnIM-10" value="&lt;font style=&quot;font-size: 13px;&quot;&gt;Contact Us&lt;/font&gt;" style="text;strokeColor=inherit;align=center;verticalAlign=middle;spacingLeft=10;spacingRight=10;overflow=hidden;points=[[0,0.5],[1,0.5]];portConstraint=eastwest;rotatable=0;whiteSpace=wrap;html=1;fillColor=inherit;fontColor=inherit;fontSize=17;" vertex="1" parent="SQtIZXjAyS8eLif3JnIM-5">
          <mxGeometry x="250" width="90" height="20" as="geometry" />
        </mxCell>
        <mxCell id="SQtIZXjAyS8eLif3JnIM-13" value="" style="rounded=0;whiteSpace=wrap;html=1;fillColor=#60a917;fontColor=#ffffff;strokeColor=#2D7600;" vertex="1" parent="1">
          <mxGeometry x="20" y="1060" width="800" height="100" as="geometry" />
        </mxCell>
        <mxCell id="SQtIZXjAyS8eLif3JnIM-14" value="" style="verticalLabelPosition=bottom;shadow=0;dashed=0;align=center;html=1;verticalAlign=top;strokeWidth=1;shape=mxgraph.mockup.graphics.simpleIcon;strokeColor=#999999;" vertex="1" parent="1">
          <mxGeometry x="630" y="1085" width="50" height="50" as="geometry" />
        </mxCell>
        <mxCell id="SQtIZXjAyS8eLif3JnIM-16" value="" style="verticalLabelPosition=bottom;shadow=0;dashed=0;align=center;html=1;verticalAlign=top;strokeWidth=1;shape=mxgraph.mockup.graphics.simpleIcon;strokeColor=#999999;" vertex="1" parent="1">
          <mxGeometry x="690" y="1085" width="50" height="50" as="geometry" />
        </mxCell>
        <mxCell id="SQtIZXjAyS8eLif3JnIM-17" value="" style="verticalLabelPosition=bottom;shadow=0;dashed=0;align=center;html=1;verticalAlign=top;strokeWidth=1;shape=mxgraph.mockup.graphics.simpleIcon;strokeColor=#999999;" vertex="1" parent="1">
          <mxGeometry x="750" y="1085" width="50" height="50" as="geometry" />
        </mxCell>
        <mxCell id="SQtIZXjAyS8eLif3JnIM-18" value="Footer content" style="text;html=1;align=center;verticalAlign=middle;whiteSpace=wrap;rounded=0;fontSize=18;" vertex="1" parent="1">
          <mxGeometry x="50" y="1095" width="550" height="30" as="geometry" />
        </mxCell>
        <mxCell id="SQtIZXjAyS8eLif3JnIM-19" value="" style="strokeWidth=1;shadow=0;dashed=0;align=center;html=1;shape=mxgraph.mockup.forms.rrect;rSize=0;strokeColor=#999999;fillColor=#ffffff;" vertex="1" parent="1">
          <mxGeometry x="20" y="220" width="400" height="410" as="geometry" />
        </mxCell>
        <mxCell id="SQtIZXjAyS8eLif3JnIM-20" value="Send Us a Message" style="strokeWidth=1;shadow=0;dashed=0;align=center;html=1;shape=mxgraph.mockup.forms.anchor;fontSize=21;fontColor=#666666;align=left;resizeWidth=1;spacingLeft=0;" vertex="1" parent="SQtIZXjAyS8eLif3JnIM-19">
          <mxGeometry width="340" height="30" relative="1" as="geometry">
            <mxPoint x="10" y="10" as="offset" />
          </mxGeometry>
        </mxCell>
        <mxCell id="SQtIZXjAyS8eLif3JnIM-22" value="Name" style="strokeWidth=1;shadow=0;dashed=0;align=center;html=1;shape=mxgraph.mockup.forms.anchor;fontSize=14;fontColor=#666666;align=left;resizeWidth=1;spacingLeft=0;" vertex="1" parent="SQtIZXjAyS8eLif3JnIM-19">
          <mxGeometry width="200" height="20" relative="1" as="geometry">
            <mxPoint x="10" y="50" as="offset" />
          </mxGeometry>
        </mxCell>
        <mxCell id="SQtIZXjAyS8eLif3JnIM-23" value="johndoe" style="strokeWidth=1;shadow=0;dashed=0;align=center;html=1;shape=mxgraph.mockup.forms.rrect;rSize=0;strokeColor=#999999;fontColor=#666666;align=left;spacingLeft=5;resizeWidth=1;" vertex="1" parent="SQtIZXjAyS8eLif3JnIM-19">
          <mxGeometry width="300" height="25" relative="1" as="geometry">
            <mxPoint x="10" y="80" as="offset" />
          </mxGeometry>
        </mxCell>
        <mxCell id="SQtIZXjAyS8eLif3JnIM-24" value="E-mail" style="strokeWidth=1;shadow=0;dashed=0;align=center;html=1;shape=mxgraph.mockup.forms.anchor;fontSize=14;fontColor=#666666;align=left;resizeWidth=1;spacingLeft=0;" vertex="1" parent="SQtIZXjAyS8eLif3JnIM-19">
          <mxGeometry width="200" height="20" relative="1" as="geometry">
            <mxPoint x="10" y="120" as="offset" />
          </mxGeometry>
        </mxCell>
        <mxCell id="SQtIZXjAyS8eLif3JnIM-25" value="johndoe@gmail.com" style="strokeWidth=1;shadow=0;dashed=0;align=center;html=1;shape=mxgraph.mockup.forms.rrect;rSize=0;strokeColor=#999999;fontColor=#666666;align=left;spacingLeft=5;resizeWidth=1;" vertex="1" parent="SQtIZXjAyS8eLif3JnIM-19">
          <mxGeometry width="300" height="25" relative="1" as="geometry">
            <mxPoint x="10" y="150" as="offset" />
          </mxGeometry>
        </mxCell>
        <mxCell id="SQtIZXjAyS8eLif3JnIM-30" value="SIGN UP" style="strokeWidth=1;shadow=0;dashed=0;align=center;html=1;shape=mxgraph.mockup.forms.rrect;rSize=5;strokeColor=none;fontColor=#ffffff;fillColor=#66bbff;fontSize=16;fontStyle=1;" vertex="1" parent="SQtIZXjAyS8eLif3JnIM-19">
          <mxGeometry y="1" width="80" height="30" relative="1" as="geometry">
            <mxPoint y="20" as="offset" />
          </mxGeometry>
        </mxCell>
        <mxCell id="SQtIZXjAyS8eLif3JnIM-62" value="" style="edgeStyle=orthogonalEdgeStyle;rounded=0;orthogonalLoop=1;jettySize=auto;html=1;" edge="1" parent="SQtIZXjAyS8eLif3JnIM-19" target="SQtIZXjAyS8eLif3JnIM-61">
          <mxGeometry relative="1" as="geometry">
            <mxPoint x="186" y="240" as="sourcePoint" />
          </mxGeometry>
        </mxCell>
        <mxCell id="SQtIZXjAyS8eLif3JnIM-61" value="Reason for reaching us:" style="strokeWidth=1;shadow=0;dashed=0;align=center;html=1;shape=mxgraph.mockup.forms.anchor;fontSize=21;fontColor=#666666;align=left;resizeWidth=1;spacingLeft=0;" vertex="1" parent="SQtIZXjAyS8eLif3JnIM-19">
          <mxGeometry x="10" y="200" width="340" height="30" as="geometry" />
        </mxCell>
        <mxCell id="SQtIZXjAyS8eLif3JnIM-69" value="" style="swimlane;strokeColor=#999999;swimlaneFillColor=#FFFFFF;fillColor=#ffffff;fontColor=#666666;fontStyle=0;childLayout=stackLayout;horizontal=1;startSize=0;horizontalStack=0;resizeParent=1;resizeParentMax=0;resizeLast=0;collapsible=0;marginBottom=0;whiteSpace=wrap;html=1;" vertex="1" parent="SQtIZXjAyS8eLif3JnIM-19">
          <mxGeometry x="20" y="245" width="240" height="90" as="geometry" />
        </mxCell>
        <mxCell id="SQtIZXjAyS8eLif3JnIM-70" value="Setting 1" style="text;strokeColor=none;align=left;verticalAlign=middle;spacingLeft=27;spacingRight=10;overflow=hidden;points=[[0,0.5],[1,0.5]];portConstraint=eastwest;rotatable=0;whiteSpace=wrap;html=1;fillColor=none;fontColor=inherit;fontSize=17;" vertex="1" parent="SQtIZXjAyS8eLif3JnIM-69">
          <mxGeometry width="240" height="30" as="geometry" />
        </mxCell>
        <mxCell id="SQtIZXjAyS8eLif3JnIM-71" value="" style="shape=ellipse;resizable=0;fillColor=#EEEEEE;strokeColor=#999999;gradientColor=#cccccc;html=1;" vertex="1" parent="SQtIZXjAyS8eLif3JnIM-70">
          <mxGeometry y="0.5" width="15" height="15" relative="1" as="geometry">
            <mxPoint x="8" y="-7.5" as="offset" />
          </mxGeometry>
        </mxCell>
        <mxCell id="SQtIZXjAyS8eLif3JnIM-72" value="Setting 2" style="text;strokeColor=none;align=left;verticalAlign=middle;spacingLeft=27;spacingRight=10;overflow=hidden;points=[[0,0.5],[1,0.5]];portConstraint=eastwest;rotatable=0;whiteSpace=wrap;html=1;rSize=5;fillColor=none;fontColor=inherit;fontSize=17;" vertex="1" parent="SQtIZXjAyS8eLif3JnIM-69">
          <mxGeometry y="30" width="240" height="30" as="geometry" />
        </mxCell>
        <mxCell id="SQtIZXjAyS8eLif3JnIM-73" value="" style="shape=ellipse;resizable=0;fillColor=#EEEEEE;strokeColor=#999999;gradientColor=#cccccc;html=1;" vertex="1" parent="SQtIZXjAyS8eLif3JnIM-72">
          <mxGeometry y="0.5" width="15" height="15" relative="1" as="geometry">
            <mxPoint x="8" y="-7.5" as="offset" />
          </mxGeometry>
        </mxCell>
        <mxCell id="SQtIZXjAyS8eLif3JnIM-74" value="Setting 3" style="text;strokeColor=none;align=left;verticalAlign=middle;spacingLeft=27;spacingRight=10;overflow=hidden;points=[[0,0.5],[1,0.5]];portConstraint=eastwest;rotatable=0;whiteSpace=wrap;html=1;rSize=5;fillColor=none;fontColor=#008CFF;fontSize=17;" vertex="1" parent="SQtIZXjAyS8eLif3JnIM-69">
          <mxGeometry y="60" width="240" height="30" as="geometry" />
        </mxCell>
        <mxCell id="SQtIZXjAyS8eLif3JnIM-75" value="" style="shape=ellipse;resizable=0;fillColor=#AAAAAA;gradientColor=#666666;strokeColor=#444444;html=1;" vertex="1" parent="SQtIZXjAyS8eLif3JnIM-74">
          <mxGeometry y="0.5" width="15" height="15" relative="1" as="geometry">
            <mxPoint x="8" y="-7.5" as="offset" />
          </mxGeometry>
        </mxCell>
        <mxCell id="SQtIZXjAyS8eLif3JnIM-76" value="" style="shape=ellipse;resizable=0;fillColor=#444444;strokeColor=none;html=1;" vertex="1" parent="SQtIZXjAyS8eLif3JnIM-75">
          <mxGeometry x="0.2" y="0.2" width="9" height="9" relative="1" as="geometry" />
        </mxCell>
        <mxCell id="SQtIZXjAyS8eLif3JnIM-79" value="Subscribe for monthly" style="strokeWidth=1;shadow=0;dashed=0;align=center;html=1;shape=mxgraph.mockup.forms.anchor;fontSize=21;fontColor=#666666;align=left;resizeWidth=1;spacingLeft=0;" vertex="1" parent="SQtIZXjAyS8eLif3JnIM-19">
          <mxGeometry x="10" y="350" width="340" height="30" as="geometry" />
        </mxCell>
        <mxCell id="SQtIZXjAyS8eLif3JnIM-31" value="Contact Us" style="text;html=1;align=center;verticalAlign=middle;whiteSpace=wrap;rounded=0;fontSize=32;" vertex="1" parent="1">
          <mxGeometry x="145" y="150" width="550" height="30" as="geometry" />
        </mxCell>
        <mxCell id="SQtIZXjAyS8eLif3JnIM-32" value="" style="verticalLabelPosition=bottom;shadow=0;dashed=0;align=center;html=1;verticalAlign=top;strokeWidth=1;shape=mxgraph.mockup.graphics.simpleIcon;strokeColor=#999999;" vertex="1" parent="1">
          <mxGeometry x="440" y="440" width="370" height="190" as="geometry" />
        </mxCell>
        <mxCell id="SQtIZXjAyS8eLif3JnIM-33" value="" style="strokeWidth=1;shadow=0;dashed=0;align=center;html=1;shape=mxgraph.mockup.forms.rrect;rSize=0;strokeColor=#999999;fillColor=#ffffff;" vertex="1" parent="1">
          <mxGeometry x="440" y="220" width="370" height="210" as="geometry" />
        </mxCell>
        <mxCell id="SQtIZXjAyS8eLif3JnIM-34" value="Contact Info" style="strokeWidth=1;shadow=0;dashed=0;align=center;html=1;shape=mxgraph.mockup.forms.anchor;fontSize=30;fontColor=#666666;align=left;resizeWidth=1;spacingLeft=0;" vertex="1" parent="SQtIZXjAyS8eLif3JnIM-33">
          <mxGeometry width="350" height="40" relative="1" as="geometry">
            <mxPoint x="10" y="10" as="offset" />
          </mxGeometry>
        </mxCell>
        <mxCell id="SQtIZXjAyS8eLif3JnIM-36" value="Jr. Ica 917 Jesus, Cajamarca" style="strokeWidth=1;shadow=0;dashed=0;align=center;html=1;shape=mxgraph.mockup.forms.anchor;fontSize=16;fontColor=#666666;align=left;resizeWidth=1;spacingLeft=0;" vertex="1" parent="SQtIZXjAyS8eLif3JnIM-33">
          <mxGeometry width="240" height="20" relative="1" as="geometry">
            <mxPoint x="10" y="65" as="offset" />
          </mxGeometry>
        </mxCell>
        <mxCell id="SQtIZXjAyS8eLif3JnIM-37" value="johndoe" style="strokeWidth=1;shadow=0;dashed=0;align=center;html=1;shape=mxgraph.mockup.forms.rrect;rSize=0;strokeColor=#999999;fontColor=#666666;align=left;spacingLeft=5;resizeWidth=1;" vertex="1" parent="SQtIZXjAyS8eLif3JnIM-33">
          <mxGeometry width="277.5" height="25" relative="1" as="geometry">
            <mxPoint x="10" y="100" as="offset" />
          </mxGeometry>
        </mxCell>
        <mxCell id="SQtIZXjAyS8eLif3JnIM-38" value="Password:" style="strokeWidth=1;shadow=0;dashed=0;align=center;html=1;shape=mxgraph.mockup.forms.anchor;fontSize=12;fontColor=#666666;align=left;resizeWidth=1;spacingLeft=0;" vertex="1" parent="SQtIZXjAyS8eLif3JnIM-33">
          <mxGeometry width="185" height="20" relative="1" as="geometry">
            <mxPoint x="10" y="130" as="offset" />
          </mxGeometry>
        </mxCell>
        <mxCell id="SQtIZXjAyS8eLif3JnIM-39" value="********" style="strokeWidth=1;shadow=0;dashed=0;align=center;html=1;shape=mxgraph.mockup.forms.rrect;rSize=0;strokeColor=#999999;fontColor=#666666;align=left;spacingLeft=5;resizeWidth=1;" vertex="1" parent="SQtIZXjAyS8eLif3JnIM-33">
          <mxGeometry width="277.5" height="25" relative="1" as="geometry">
            <mxPoint x="10" y="160" as="offset" />
          </mxGeometry>
        </mxCell>
        <mxCell id="SQtIZXjAyS8eLif3JnIM-47" value="Map" style="text;html=1;align=center;verticalAlign=middle;whiteSpace=wrap;rounded=0;fontSize=32;" vertex="1" parent="1">
          <mxGeometry x="515" y="510" width="220" height="30" as="geometry" />
        </mxCell>
      </root>
    </mxGraphModel>
  </diagram>
</mxfile>
